#!OML:ASF X:\für Bonn\!DataBase\2005_08_12_Daniel\c3d\Daniel.ASF
:FULLY-SPECIFIED
:DEGREES
79
root 5.38038 14.2124 -4.36375 -1090.33 11.37 -2.31123
lowerback 67.5291 -4.16981 0.204866
upperback 11.8303 -4.56725 -3.25556
thorax -8.33966 -1.59349 -1.76651
lowerneck 5.53504 7.90456 -2.77684
upperneck 8.44194 10.4524 -3.78266
head 1.79588 4.99468 -0.730396
rclavicle 0 1.11319e-014
rhumerus -25.2977 10.6986 -85.6134
rradius 44.8544
rwrist 5.04695
rhand -17.4777 -339.699
rfingers 7.12502
rthumb 8.77441 -369.497
lclavicle 0 1.11319e-014
lhumerus -719.965 -2.81396 -648.968
lradius 46.0301
lwrist -11.0778
lhand -18.937 353.604
lfingers 7.12502
lthumb 7.36593 383.456
rfemur 311.866 -17.265 390.675
rtibia 73.0973
rfoot -16.3946 2.24508
rtoes 9.46731
lfemur -31.0575 6.22186 -9.69296
ltibia 104.028
lfoot -8.42583 -23.0108
ltoes -2.53213
80
root 5.44162 14.1328 -4.31659 -1090.46 10.6107 -2.71241
lowerback 68.3428 -4.03897 0.0251141
upperback 11.7448 -4.57406 -3.3032
thorax -8.40296 -1.59984 -1.75105
lowerneck 5.59045 8.22062 -2.53307
upperneck 8.23317 10.8817 -4.18097
head 1.7639 5.2117 -0.897326
rclavicle -1.59028e-015 2.3059e-014
rhumerus -25.258 10.772 -85.5551
rradius 45.0294
rwrist 5.26221
rhand -17.2622 -339.743
rfingers 7.12502
rthumb 8.98237 -369.532
lclavicle -1.59028e-015 2.3059e-014
lhumerus -719.181 -2.54783 -649.586
lradius 45.2301
lwrist -11.6354
lhand -18.9642 353.438
lfingers 7.12502
lthumb 7.33975 383.291
rfemur 311.436 -17.4098 391.153
rtibia 74.1016
rfoot -16.5996 2.96878
rtoes 9.52109
lfemur -32.1484 5.68291 -9.65656
ltibia 104.641
lfoot -8.78464 -23.5976
ltoes -1.78304
81
root 5.50227 14.054 -4.26895 -1090.58 9.85277 -3.13996
lowerback 69.1346 -3.88801 -0.147117
upperback 11.659 -4.55748 -3.3338
thorax -8.46016 -1.59819 -1.7311
lowerneck 5.67921 8.53123 -2.33067
upperneck 8.01351 11.2965 -4.53334
head 1.72035 5.42226 -1.04579
rclavicle 7.95139e-015 1.35174e-014
rhumerus -25.2274 10.8571 -85.4677
rradius 45.1588
rwrist 5.49411
rhand -17.0265 -339.89
rfingers 7.12502
rthumb 9.20981 -369.668
lclavicle 7.95139e-015 1.35174e-014
lhumerus -718.341 -2.24965 -650.194
lradius 44.3582
lwrist -12.2203
lhand -18.9414 353.27
lfingers 7.12502
lthumb 7.36168 383.122
rfemur 311.034 -17.5861 391.657
rtibia 75.0952
rfoot -16.7761 3.72795
rtoes 9.64513
lfemur -33.2163 5.11618 -9.58507
ltibia 105.195
lfoot -9.15048 -24.1318
ltoes -1.29497
82
root 5.56239 13.9735 -4.22184 -1090.69 9.13085 -3.58592
lowerback 69.8736 -3.74894 -0.315876
upperback 11.5865 -4.5554 -3.36181
thorax -8.50021 -1.60403 -1.70398
lowerneck 5.79174 8.83679 -2.05704
upperneck 7.76023 11.7079 -4.95328
head 1.67386 5.63414 -1.22856
rclavicle -5.88403e-014 -6.36111e-015
rhumerus -25.1674 10.8842 -85.3897
rradius 45.2182
rwrist 5.78196
rhand -16.7463 -339.998
rfingers 7.12502
rthumb 9.48018 -369.765
lclavicle -5.88403e-014 -6.36111e-015
lhumerus -717.506 -1.90008 -650.822
lradius 43.484
lwrist -12.869
lhand -19.0001 353.135
lfingers 7.12502
lthumb 7.30507 382.989
rfemur 310.61 -17.78 392.174
rtibia 76.0915
rfoot -16.9904 4.46171
rtoes 9.75989
lfemur -34.3368 4.49711 -9.50652
ltibia 105.725
lfoot -9.4507 -24.6473
ltoes -0.997607
83
root 5.62263 13.8933 -4.17489 -1090.83 8.38652 -4.04496
lowerback 70.6378 -3.58283 -0.491374
upperback 11.5119 -4.53615 -3.3956
thorax -8.53673 -1.60245 -1.69021
lowerneck 5.92972 9.13404 -1.75214
upperneck 7.4719 12.1051 -5.3458
head 1.61477 5.84227 -1.41065
rclavicle 4.6118e-014 1.43125e-014
rhumerus -25.0927 10.9032 -85.3346
rradius 45.2035
rwrist 6.03881
rhand -16.504 -340.106
rfingers 7.12502
rthumb 9.71387 -369.862
lclavicle 4.6118e-014 1.43125e-014
lhumerus -716.644 -1.5756 -651.503
lradius 42.5926
lwrist -13.4284
lhand -18.9659 352.952
lfingers 7.12502
lthumb 7.33809 382.805
rfemur 310.251 -17.9597 392.689
rtibia 77.0675
rfoot -17.1854 5.18777
rtoes 9.90331
lfemur -35.362 3.92146 -9.40841
ltibia 106.213
lfoot -9.89384 -25.171
ltoes -1.30417
84
root 5.68287 13.8098 -4.12937 -1090.93 7.65892 -4.51924
lowerback 71.3413 -3.4135 -0.660393
upperback 11.4401 -4.51187 -3.41424
thorax -8.56815 -1.60129 -1.66416
lowerneck 6.09474 9.42594 -1.48135
upperneck 7.16576 12.4897 -5.71485
head 1.54425 6.04514 -1.58297
rclavicle 5.08889e-014 7.95139e-016
rhumerus -25.0535 10.9899 -85.2661
rradius 45.2091
rwrist 6.15331
rhand -16.31 -340.307
rfingers 7.12502
rthumb 9.90112 -370.054
lclavicle 5.08889e-014 7.95139e-016
lhumerus -715.816 -1.19309 -652.153
lradius 41.7023
lwrist -14.066
lhand -19.0001 352.731
lfingers 7.12502
lthumb 7.30503 382.585
rfemur 309.817 -18.1786 393.24
rtibia 78.0616
rfoot -17.3624 5.9092
rtoes 10.0612
lfemur -36.4187 3.33849 -9.28472
ltibia 106.684
lfoot -10.1684 -25.7619
ltoes -1.52493
85
root 5.74336 13.7239 -4.08441 -1091.03 6.92892 -5.00739
lowerback 72.0245 -3.23536 -0.830571
upperback 11.38 -4.48506 -3.43822
thorax -8.584 -1.59963 -1.6459
lowerneck 6.26344 9.71048 -1.16812
upperneck 6.83253 12.8659 -6.09762
head 1.47074 6.24636 -1.7683
rclavicle -1.59028e-014 -3.10104e-014
rhumerus -24.9384 11.0148 -85.21
rradius 45.0904
rwrist 6.31809
rhand -16.2476 -340.462
rfingers 7.12502
rthumb 9.9613 -370.207
lclavicle -1.59028e-014 -3.10104e-014
lhumerus -714.981 -0.776353 -652.837
lradius 40.8436
lwrist -14.6351
lhand -19.0303 352.544
lfingers 7.12502
lthumb 7.2759 382.399
rfemur 309.394 -18.3699 393.789
rtibia 79.0499
rfoot -17.5315 6.62144
rtoes 10.2878
lfemur -37.3949 2.74397 -9.11456
ltibia 107.136
lfoot -10.1746 -26.5106
ltoes -1.08423
86
root 5.80464 13.6354 -4.0397 -1091.13 6.19248 -5.50924
lowerback 72.6817 -3.05392 -0.985567
upperback 11.3296 -4.45151 -3.4753
thorax -8.58878 -1.5946 -1.65259
lowerneck 6.39271 9.98528 -0.808152
upperneck 6.50093 13.2335 -6.46535
head 1.40881 6.44464 -1.95536
rclavicle 4.77083e-015 1.27222e-014
rhumerus -24.8208 11.0926 -85.1858
rradius 44.9407
rwrist 6.38681
rhand -16.3189 -340.621
rfingers 7.12502
rthumb 9.89247 -370.369
lclavicle 4.77083e-015 1.27222e-014
lhumerus -714.133 -0.325248 -653.529
lradius 39.9437
lwrist -15.2957
lhand -19.1286 352.255
lfingers 7.12502
lthumb 7.18101 382.113
rfemur 308.967 -18.5737 394.354
rtibia 80.0374
rfoot -17.6913 7.32973
rtoes 10.4526
lfemur -38.3652 2.1512 -8.90235
ltibia 107.599
lfoot -9.8879 -27.3454
ltoes -0.254299
87
root 5.86652 13.5446 -3.99602 -1091.22 5.4641 -5.99987
lowerback 73.3085 -2.84661 -1.16611
upperback 11.2912 -4.4083 -3.48736
thorax -8.57449 -1.58931 -1.62512
lowerneck 6.44434 10.2406 -0.525738
upperneck 6.22443 13.5761 -6.79163
head 1.37041 6.62646 -2.11224
rclavicle 6.36111e-015 -7.95139e-016
rhumerus -24.6818 11.2215 -85.1166
rradius 44.779
rwrist 6.32914
rhand -16.425 -340.795
rfingers 7.12502
rthumb 9.79014 -370.547
lclavicle 6.36111e-015 -7.95139e-016
lhumerus -713.302 0.165836 -654.194
lradius 39.0571
lwrist -15.9298
lhand -19.2589 351.955
lfingers 7.12502
lthumb 7.05528 381.817
rfemur 308.528 -18.8041 394.91
rtibia 81.0361
rfoot -17.841 8.05066
rtoes 10.6884
lfemur -39.3315 1.54357 -8.69401
ltibia 108.062
lfoot -9.31069 -28.2127
ltoes 0.597204
88
root 5.92893 13.4521 -3.95323 -1091.3 4.73976 -6.51954
lowerback 73.909 -2.67224 -1.30313
upperback 11.253 -4.38024 -3.53592
thorax -8.56565 -1.58715 -1.65067
lowerneck 6.4494 10.5004 -0.246794
upperneck 5.96572 13.9244 -7.03633
head 1.34091 6.81036 -2.23985
rclavicle -5.725e-014 -2.38542e-014
rhumerus -24.5514 11.3671 -85.0977
rradius 44.5635
rwrist 6.21915
rhand -16.6003 -340.961
rfingers 7.12502
rthumb 9.62099 -370.721
lclavicle -5.725e-014 -2.38542e-014
lhumerus -712.504 0.640761 -654.913
lradius 38.2188
lwrist -16.5819
lhand -19.4353 351.73
lfingers 7.12502
lthumb 6.88492 381.598
rfemur 308.084 -19.0205 395.48
rtibia 82.034
rfoot -17.9756 8.72307
rtoes 10.9498
lfemur -40.2726 0.935048 -8.41306
ltibia 108.54
lfoot -8.44419 -29.1786
ltoes 1.60173
89
root 5.99136 13.3568 -3.91041 -1091.36 4.00623 -7.03889
lowerback 74.446 -2.48605 -1.44602
upperback 11.2337 -4.35147 -3.60552
thorax -8.53967 -1.58419 -1.69837
lowerneck 6.45338 10.7278 0.0641215
upperneck 5.66863 14.231 -7.29308
head 1.30259 6.97595 -2.37769
rclavicle 1.90833e-014 -4.77083e-015
rhumerus -24.4451 11.5027 -85.1096
rradius 44.3674
rwrist 6.08547
rhand -16.8043 -341.111
rfingers 7.12502
rthumb 9.42419 -370.88
lclavicle 1.90833e-014 -4.77083e-015
lhumerus -711.698 1.13257 -655.68
lradius 37.3633
lwrist -17.2575
lhand -19.6408 351.458
lfingers 7.12502
lthumb 6.68656 381.332
rfemur 307.613 -19.2238 396.06
rtibia 83.0525
rfoot -18.1247 9.40178
rtoes 11.1898
lfemur -41.1284 0.378324 -8.07789
ltibia 109.033
lfoot -7.31319 -30.2467
ltoes 2.84991
